<svg width="256" height="256" viewBox="0 0 256 256" fill="none" xmlns="http://www.w3.org/2000/svg">
  <defs>
    <linearGradient id="base" x1="32" y1="36" x2="208" y2="220" gradientUnits="userSpaceOnUse">
      <stop stop-color="#1F2937"/>
      <stop offset="1" stop-color="#0F172A"/>
    </linearGradient>
    <linearGradient id="blue" x1="52" y1="52" x2="190" y2="170" gradientUnits="userSpaceOnUse">
      <stop stop-color="#0EA5E9"/>
      <stop offset="1" stop-color="#2563EB"/>
    </linearGradient>
    <linearGradient id="line" x1="44" y1="176" x2="212" y2="176" gradientUnits="userSpaceOnUse">
      <stop stop-color="#0EA5E9"/>
      <stop offset="1" stop-color="#1D4ED8"/>
    </linearGradient>
  </defs>

  <rect x="6" y="6" width="244" height="244" rx="44" fill="url(#base)"/>

  <path d="M44 176C74 154 98 142 128 142C150 142 170 150 193 163L212 173C180 198 146 212 106 212C80 212 58 202 44 176Z" fill="url(#blue)"/>
  <path d="M46 178C72 158 98 148 126 148C150 148 170 156 190 166" stroke="#93C5FD" stroke-width="8" stroke-linecap="round"/>

  <path d="M92 164V108L126 82L160 108V164" fill="#E5E7EB"/>
  <path d="M102 164V114L126 95L150 114V164" fill="#F8FAFC"/>
  <rect x="120" y="136" width="12" height="28" rx="3" fill="#1F2937"/>
  <rect x="115" y="116" width="26" height="18" rx="3" fill="#0F172A"/>

  <path d="M70 146L126 104L182 146" stroke="#1F2937" stroke-width="10" stroke-linecap="round" stroke-linejoin="round"/>
  <path d="M70 146L126 104L182 146" stroke="#F8FAFC" stroke-opacity="0.7" stroke-width="3" stroke-linecap="round" stroke-linejoin="round"/>

  <rect x="74" y="118" width="14" height="42" rx="4" transform="rotate(-12 74 118)" fill="#374151"/>
  <rect x="172" y="88" width="14" height="80" rx="4" fill="#2563EB"/>
  <rect x="182" y="92" width="10" height="76" rx="4" fill="#0EA5E9"/>

  <path d="M56 184H200" stroke="url(#line)" stroke-width="10" stroke-linecap="round"/>
  <path d="M58 184H198" stroke="#E0F2FE" stroke-opacity="0.55" stroke-width="3" stroke-linecap="round"/>

  <path d="M86 188L102 184L114 190L130 180L150 186L168 182L184 187" stroke="#38BDF8" stroke-width="4" stroke-linecap="round" stroke-linejoin="round"/>
</svg>