<svg width="1200" height="1200" viewBox="0 0 1200 1200" fill="none" xmlns="http://www.w3.org/2000/svg">
  <defs>
    <radialGradient id="glow" cx="0" cy="0" r="1" gradientUnits="userSpaceOnUse" gradientTransform="translate(600 420) rotate(90) scale(520 520)">
      <stop offset="0" stop-color="#38BDF8" stop-opacity="0.85"/>
      <stop offset="0.45" stop-color="#0F172A" stop-opacity="0.15"/>
      <stop offset="1" stop-color="#020617" stop-opacity="0"/>
    </radialGradient>
    <linearGradient id="panel" x1="180" y1="180" x2="1020" y2="1020" gradientUnits="userSpaceOnUse">
      <stop stop-color="#0F172A"/>
      <stop offset="1" stop-color="#030712"/>
    </linearGradient>
    <linearGradient id="accent" x1="120" y1="160" x2="1040" y2="1040" gradientUnits="userSpaceOnUse">
      <stop stop-color="#38BDF8"/>
      <stop offset="0.5" stop-color="#22C55E"/>
      <stop offset="1" stop-color="#F59E0B"/>
    </linearGradient>
  </defs>

  <rect width="1200" height="1200" rx="84" fill="url(#panel)"/>
  <rect width="1200" height="1200" rx="84" fill="url(#glow)"/>

  <g opacity="0.16">
    <path d="M0 120H1200" stroke="#60A5FA" stroke-width="1"/>
    <path d="M0 240H1200" stroke="#60A5FA" stroke-width="1"/>
    <path d="M0 360H1200" stroke="#60A5FA" stroke-width="1"/>
    <path d="M0 480H1200" stroke="#60A5FA" stroke-width="1"/>
    <path d="M0 600H1200" stroke="#60A5FA" stroke-width="1"/>
    <path d="M0 720H1200" stroke="#60A5FA" stroke-width="1"/>
    <path d="M0 840H1200" stroke="#60A5FA" stroke-width="1"/>
    <path d="M0 960H1200" stroke="#60A5FA" stroke-width="1"/>

    <path d="M120 0V1200" stroke="#60A5FA" stroke-width="1"/>
    <path d="M240 0V1200" stroke="#60A5FA" stroke-width="1"/>
    <path d="M360 0V1200" stroke="#60A5FA" stroke-width="1"/>
    <path d="M480 0V1200" stroke="#60A5FA" stroke-width="1"/>
    <path d="M600 0V1200" stroke="#60A5FA" stroke-width="1"/>
    <path d="M720 0V1200" stroke="#60A5FA" stroke-width="1"/>
    <path d="M840 0V1200" stroke="#60A5FA" stroke-width="1"/>
    <path d="M960 0V1200" stroke="#60A5FA" stroke-width="1"/>
  </g>

  <rect x="150" y="170" width="900" height="700" rx="42" fill="#0B1222" stroke="url(#accent)" stroke-width="2"/>

  <g>
    <rect x="210" y="232" width="260" height="54" rx="18" fill="#0F172A" stroke="#1F2937"/>
    <rect x="210" y="232" width="96" height="54" rx="18" fill="#38BDF8" fill-opacity="0.24"/>
    <circle cx="250" cy="259" r="11" fill="#38BDF8"/>
    <text x="276" y="266" fill="#D1FAE5" font-family="Inter, Arial, sans-serif" font-size="22" font-weight="700">Enterprise Control</text>

    <rect x="210" y="330" width="360" height="40" rx="14" fill="#111827"/>
    <rect x="210" y="390" width="500" height="40" rx="14" fill="#111827"/>
    <rect x="210" y="450" width="430" height="40" rx="14" fill="#111827"/>

    <rect x="210" y="540" width="210" height="210" rx="28" fill="#0F172A" stroke="#1F2937"/>
    <path d="M248 654L296 610L340 642L380 576" stroke="#38BDF8" stroke-width="10" stroke-linecap="round" stroke-linejoin="round"/>
    <circle cx="248" cy="654" r="10" fill="#38BDF8"/>
    <circle cx="296" cy="610" r="10" fill="#22C55E"/>
    <circle cx="340" cy="642" r="10" fill="#F59E0B"/>
    <circle cx="380" cy="576" r="10" fill="#F87171"/>

    <rect x="450" y="540" width="270" height="92" rx="24" fill="#0F172A" stroke="#1F2937"/>
    <text x="480" y="580" fill="#E5E7EB" font-family="Inter, Arial, sans-serif" font-size="30" font-weight="800">94%</text>
    <text x="480" y="615" fill="#94A3B8" font-family="Inter, Arial, sans-serif" font-size="18" font-weight="600">Project health score</text>

    <rect x="450" y="658" width="270" height="92" rx="24" fill="#0F172A" stroke="#1F2937"/>
    <text x="480" y="698" fill="#E5E7EB" font-family="Inter, Arial, sans-serif" font-size="30" font-weight="800">03</text>
    <text x="480" y="733" fill="#94A3B8" font-family="Inter, Arial, sans-serif" font-size="18" font-weight="600">Critical actions pending</text>

    <rect x="740" y="540" width="230" height="210" rx="28" fill="#0F172A" stroke="#1F2937"/>
    <rect x="778" y="580" width="154" height="18" rx="9" fill="#38BDF8"/>
    <rect x="778" y="616" width="122" height="18" rx="9" fill="#22C55E"/>
    <rect x="778" y="652" width="168" height="18" rx="9" fill="#F59E0B"/>
    <rect x="778" y="688" width="98" height="18" rx="9" fill="#F87171"/>
  </g>

  <g opacity="0.95">
    <circle cx="870" cy="250" r="88" fill="#38BDF8" fill-opacity="0.12"/>
    <circle cx="870" cy="250" r="38" fill="#38BDF8" fill-opacity="0.25"/>
    <path d="M870 202L880 232L912 232L886 251L896 282L870 264L844 282L854 251L828 232L860 232L870 202Z" fill="#38BDF8"/>
  </g>
</svg>